<?xml version="1.0" encoding="UTF-8" standalone="no"?>
<!DOCTYPE svg PUBLIC "-//W3C//DTD SVG 1.1//EN" "http://www.w3.org/Graphics/SVG/1.1/DTD/svg11.dtd">
<svg width="100%" height="100%" viewBox="0 0 792 793" version="1.1" xmlns="http://www.w3.org/2000/svg" xmlns:xlink="http://www.w3.org/1999/xlink" xml:space="preserve" xmlns:serif="http://www.serif.com/" style="fill-rule:evenodd;clip-rule:evenodd;stroke-linecap:round;stroke-linejoin:round;stroke-miterlimit:1.5;">
    <g transform="matrix(1,0,0,1,-76.44357,-1375.472211)">
        <g transform="matrix(1,0,0,0.251558,-944.88189,1251.518051)">
            <rect x="1062.992" y="2007.874" width="708.661" height="118.11" style="stroke:black;stroke-width:114.29px;"/>
        </g>
        <g transform="matrix(1,0,0,0.251558,-944.88189,1591.176959)">
            <rect x="1062.992" y="2007.874" width="708.661" height="118.11" style="stroke:black;stroke-width:114.29px;"/>
        </g>
        <g transform="matrix(1,0,0,0.251558,-944.88189,1427.721717)">
            <rect x="1062.992" y="2007.874" width="708.661" height="118.11" style="stroke:black;stroke-width:114.29px;"/>
        </g>
        <g transform="matrix(0.5,0,0,0.251558,-59.055118,912.0431)">
            <rect x="1062.992" y="2007.874" width="708.661" height="118.11" style="stroke:black;stroke-width:210.56px;"/>
        </g>
        <g transform="matrix(0.5,0,0,0.251558,-59.055118,1073.945529)">
            <rect x="1062.992" y="2007.874" width="708.661" height="118.11" style="stroke:black;stroke-width:210.56px;"/>
        </g>
        <g transform="matrix(1,0,0,0.251558,-944.88189,1591.176959)">
            <rect x="1062.992" y="2007.874" width="708.661" height="118.11" style="stroke:black;stroke-width:114.29px;"/>
        </g>
        <g transform="matrix(1,0,0,1,-118.110236,-0.183957)">
            <path d="M236.22,1535.433L472.441,1535.433" style="fill:none;stroke:black;stroke-width:83.33px;"/>
        </g>
        <g transform="matrix(1,0,0,1,-118.110236,-0.183957)">
            <path d="M354.331,1417.323L354.331,1653.543" style="fill:none;stroke:black;stroke-width:83.33px;"/>
        </g>
    </g>
</svg>
