<?xml version="1.0" encoding="UTF-8" standalone="no"?>
<!DOCTYPE svg PUBLIC "-//W3C//DTD SVG 1.1//EN" "http://www.w3.org/Graphics/SVG/1.1/DTD/svg11.dtd">
<svg width="100%" height="100%" viewBox="0 0 792 786" version="1.1" xmlns="http://www.w3.org/2000/svg" xmlns:xlink="http://www.w3.org/1999/xlink" xml:space="preserve" xmlns:serif="http://www.serif.com/" style="fill-rule:evenodd;clip-rule:evenodd;stroke-linecap:round;stroke-linejoin:round;stroke-miterlimit:1.5;">
    <g transform="matrix(1,0,0,1,-3147.327848,-1375.656168)">
        <g transform="matrix(1,0,0,1,2125.984252,0)">
            <path d="M1475.318,1422.101L1500.383,1491.637C1511.719,1495 1522.841,1499.048 1533.686,1503.759L1597.584,1466.602C1631.096,1486.405 1661.116,1511.595 1686.438,1541.16L1660.941,1610.539C1667.464,1620.401 1673.382,1630.651 1678.662,1641.231L1751.494,1653.84C1764.437,1690.552 1771.242,1729.145 1771.635,1768.069L1707.508,1804.828C1706.165,1816.575 1704.11,1828.231 1701.354,1839.729L1749.042,1896.204C1735.359,1932.646 1715.765,1966.584 1691.046,1996.655L1618.294,1983.594C1609.714,1991.73 1600.647,1999.337 1591.145,2006.374L1591.374,2080.29C1557.468,2099.411 1520.643,2112.814 1482.379,2119.961L1435.043,2063.191C1423.24,2063.908 1411.405,2063.908 1399.603,2063.191L1352.267,2119.961C1314.002,2112.814 1277.177,2099.411 1243.271,2080.29L1243.501,2006.374C1233.998,1999.337 1224.932,1991.73 1216.352,1983.594L1143.599,1996.655C1118.881,1966.584 1099.287,1932.646 1085.604,1896.204L1133.292,1839.729C1130.536,1828.231 1128.481,1816.575 1127.138,1804.828L1063.01,1768.069C1063.404,1729.145 1070.209,1690.552 1083.152,1653.84L1155.984,1641.231C1161.264,1630.651 1167.182,1620.401 1173.704,1610.539L1148.208,1541.16C1173.53,1511.595 1203.55,1486.405 1237.062,1466.602L1300.96,1503.759C1311.805,1499.048 1322.927,1495 1334.263,1491.637L1359.328,1422.101C1397.729,1415.73 1436.917,1415.73 1475.318,1422.101ZM1417.323,1604.089C1509.804,1604.089 1584.888,1679.172 1584.888,1771.654C1584.888,1864.135 1509.804,1939.218 1417.323,1939.218C1324.841,1939.218 1249.758,1864.135 1249.758,1771.654C1249.758,1679.172 1324.841,1604.089 1417.323,1604.089Z" style="fill:none;stroke:black;stroke-width:83.33px;"/>
        </g>
    </g>
</svg>
